<svg width="372" height="51" viewBox="0 0 372 51" fill="none" xmlns="http://www.w3.org/2000/svg">
<mask id="path-1-outside-1_1_4" maskUnits="userSpaceOnUse" x="-12" y="-10" width="405" height="71" fill="black">
<rect fill="white" x="-12" y="-10" width="405" height="71"/>
<path d="M8.71057 1.39169H23.2598L30.6175 31.4871H31.1872L48.5134 1.39169H63.0626L54.9929 50H43.5529L48.5134 20.142H48.1099L31.5432 49.6915H24.2567L17.5161 19.9758H17.1126L12.0809 50H0.640832L8.71057 1.39169ZM112.116 26.4553C111.23 31.6928 109.489 36.1153 106.894 39.723C104.315 43.3148 101.174 46.0363 97.4718 47.8876C93.785 49.7389 89.8213 50.6646 85.5808 50.6646C81.1029 50.6646 77.2262 49.6677 73.9508 47.674C70.6755 45.6803 68.2941 42.7768 66.8068 38.9634C65.3352 35.1501 65.0504 30.5219 65.9523 25.0787C66.8068 19.8413 68.5236 15.4109 71.1027 11.7874C73.6977 8.16394 76.8544 5.41865 80.5728 3.55153C84.307 1.66859 88.3102 0.727122 92.5825 0.727122C97.0287 0.727122 100.882 1.73188 104.141 3.74141C107.417 5.75093 109.79 8.67028 111.262 12.4994C112.733 16.3286 113.018 20.9806 112.116 26.4553ZM100.367 25.0787C100.858 22.0249 100.858 19.4537 100.367 17.365C99.8927 15.2764 98.9591 13.702 97.5667 12.6419C96.1743 11.5659 94.3625 11.0279 92.1315 11.0279C89.6631 11.0279 87.4321 11.6371 85.4384 12.8555C83.4605 14.058 81.807 15.8144 80.4778 18.1245C79.1487 20.4189 78.2231 23.1958 77.7009 26.4553C77.1629 29.5408 77.1471 32.1121 77.6534 34.1691C78.1756 36.2261 79.1487 37.7767 80.5728 38.821C81.9969 39.8495 83.8086 40.3638 86.008 40.3638C88.4606 40.3638 90.6679 39.7704 92.6299 38.5837C94.592 37.397 96.2297 35.6643 97.543 33.3858C98.8721 31.1073 99.8136 28.3383 100.367 25.0787ZM131.293 1.39169L136.254 36.9935H136.657L153.438 1.39169H166.587L142.116 50H126.475L118.145 1.39169H131.293ZM183.569 1.39169L175.499 50H163.75L171.82 1.39169H183.569ZM182.875 50L190.944 1.39169H224.837L223.223 10.933H201.079L199.465 20.9015H219.877L218.263 30.4665H197.851L196.237 40.4587H218.381L216.767 50H182.875ZM224.125 50L232.195 1.39169H265.376L263.762 10.933H242.33L240.716 20.9015H260.035L258.422 30.4665H239.102L235.874 50H224.125ZM263.222 50L271.292 1.39169H283.04L276.584 40.4587H296.806L295.192 50H263.222ZM321.093 1.39169L313.023 50H301.274L309.344 1.39169H321.093ZM339.908 1.39169L346.221 16.7479H346.601L358.136 1.39169H371.736L353.081 25.6958L364.141 50H350.968L344.418 34.4776H344.038L332.361 50H318.666L337.819 25.6958L327.115 1.39169H339.908Z"/>
</mask>
<path d="M8.71057 1.39169H23.2598L30.6175 31.4871H31.1872L48.5134 1.39169H63.0626L54.9929 50H43.5529L48.5134 20.142H48.1099L31.5432 49.6915H24.2567L17.5161 19.9758H17.1126L12.0809 50H0.640832L8.71057 1.39169ZM112.116 26.4553C111.23 31.6928 109.489 36.1153 106.894 39.723C104.315 43.3148 101.174 46.0363 97.4718 47.8876C93.785 49.7389 89.8213 50.6646 85.5808 50.6646C81.1029 50.6646 77.2262 49.6677 73.9508 47.674C70.6755 45.6803 68.2941 42.7768 66.8068 38.9634C65.3352 35.1501 65.0504 30.5219 65.9523 25.0787C66.8068 19.8413 68.5236 15.4109 71.1027 11.7874C73.6977 8.16394 76.8544 5.41865 80.5728 3.55153C84.307 1.66859 88.3102 0.727122 92.5825 0.727122C97.0287 0.727122 100.882 1.73188 104.141 3.74141C107.417 5.75093 109.79 8.67028 111.262 12.4994C112.733 16.3286 113.018 20.9806 112.116 26.4553ZM100.367 25.0787C100.858 22.0249 100.858 19.4537 100.367 17.365C99.8927 15.2764 98.9591 13.702 97.5667 12.6419C96.1743 11.5659 94.3625 11.0279 92.1315 11.0279C89.6631 11.0279 87.4321 11.6371 85.4384 12.8555C83.4605 14.058 81.807 15.8144 80.4778 18.1245C79.1487 20.4189 78.2231 23.1958 77.7009 26.4553C77.1629 29.5408 77.1471 32.1121 77.6534 34.1691C78.1756 36.2261 79.1487 37.7767 80.5728 38.821C81.9969 39.8495 83.8086 40.3638 86.008 40.3638C88.4606 40.3638 90.6679 39.7704 92.6299 38.5837C94.592 37.397 96.2297 35.6643 97.543 33.3858C98.8721 31.1073 99.8136 28.3383 100.367 25.0787ZM131.293 1.39169L136.254 36.9935H136.657L153.438 1.39169H166.587L142.116 50H126.475L118.145 1.39169H131.293ZM183.569 1.39169L175.499 50H163.75L171.82 1.39169H183.569ZM182.875 50L190.944 1.39169H224.837L223.223 10.933H201.079L199.465 20.9015H219.877L218.263 30.4665H197.851L196.237 40.4587H218.381L216.767 50H182.875ZM224.125 50L232.195 1.39169H265.376L263.762 10.933H242.33L240.716 20.9015H260.035L258.422 30.4665H239.102L235.874 50H224.125ZM263.222 50L271.292 1.39169H283.04L276.584 40.4587H296.806L295.192 50H263.222ZM321.093 1.39169L313.023 50H301.274L309.344 1.39169H321.093ZM339.908 1.39169L346.221 16.7479H346.601L358.136 1.39169H371.736L353.081 25.6958L364.141 50H350.968L344.418 34.4776H344.038L332.361 50H318.666L337.819 25.6958L327.115 1.39169H339.908Z" fill="#6E6EFC"/>
<path d="M8.71057 1.39169V-8.60831H0.233858L-1.15441 -0.246052L8.71057 1.39169ZM23.2598 1.39169L32.9737 -0.983163L31.1096 -8.60831H23.2598V1.39169ZM30.6175 31.4871L20.9036 33.8619L22.7678 41.4871H30.6175V31.4871ZM31.1872 31.4871V41.4871H36.9689L39.8536 36.4764L31.1872 31.4871ZM48.5134 1.39169V-8.60831H42.7317L39.847 -3.59764L48.5134 1.39169ZM63.0626 1.39169L72.9276 3.02943L74.8597 -8.60831H63.0626V1.39169ZM54.9929 50V60H63.4696L64.8579 51.6377L54.9929 50ZM43.5529 50L33.6881 48.3611L31.7544 60H43.5529V50ZM48.5134 20.142L58.3782 21.7809L60.3118 10.142H48.5134V20.142ZM48.1099 20.142V10.142H42.2519L39.3872 15.2517L48.1099 20.142ZM31.5432 49.6915V59.6915H37.4011L40.2659 54.5817L31.5432 49.6915ZM24.2567 49.6915L14.5044 51.9036L16.271 59.6915H24.2567V49.6915ZM17.5161 19.9758L27.2683 17.7637L25.5018 9.97582H17.5161V19.9758ZM17.1126 19.9758V9.97582H8.64902L7.25013 18.323L17.1126 19.9758ZM12.0809 50V60H20.5444L21.9433 51.6528L12.0809 50ZM0.640832 50L-9.22415 48.3623L-11.1562 60H0.640832V50ZM8.71057 11.3917H23.2598V-8.60831H8.71057V11.3917ZM13.5459 3.76654L20.9036 33.8619L40.3315 29.1122L32.9737 -0.983163L13.5459 3.76654ZM30.6175 41.4871H31.1872V21.4871H30.6175V41.4871ZM39.8536 36.4764L57.1798 6.38102L39.847 -3.59764L22.5208 26.4977L39.8536 36.4764ZM48.5134 11.3917H63.0626V-8.60831H48.5134V11.3917ZM53.1977 -0.246052L45.1279 48.3623L64.8579 51.6377L72.9276 3.02943L53.1977 -0.246052ZM54.9929 40H43.5529V60H54.9929V40ZM53.4176 51.6389L58.3782 21.7809L38.6486 18.5031L33.6881 48.3611L53.4176 51.6389ZM48.5134 10.142H48.1099V30.142H48.5134V10.142ZM39.3872 15.2517L22.8205 44.8012L40.2659 54.5817L56.8326 25.0323L39.3872 15.2517ZM31.5432 39.6915H24.2567V59.6915H31.5432V39.6915ZM34.0089 47.4793L27.2683 17.7637L7.76383 22.188L14.5044 51.9036L34.0089 47.4793ZM17.5161 9.97582H17.1126V29.9758H17.5161V9.97582ZM7.25013 18.323L2.21841 48.3472L21.9433 51.6528L26.9751 21.6287L7.25013 18.323ZM12.0809 40H0.640832V60H12.0809V40ZM10.5058 51.6377L18.5756 3.02943L-1.15441 -0.246052L-9.22415 48.3623L10.5058 51.6377ZM112.116 26.4553L121.976 28.1235L121.979 28.1022L121.983 28.0808L112.116 26.4553ZM106.894 39.7229L98.7763 33.8837L98.7716 33.8903L106.894 39.7229ZM97.4718 47.8876L92.9996 38.9434L92.992 38.9472L92.9843 38.951L97.4718 47.8876ZM73.9509 47.674L68.7514 56.216L73.9509 47.674ZM66.8068 38.9634L57.4773 42.5636L57.4838 42.5804L57.4903 42.5972L66.8068 38.9634ZM65.9523 25.0787L75.8178 26.7134L75.8198 26.7012L75.8218 26.6889L65.9523 25.0787ZM71.1027 11.7874L62.9726 5.96496L62.9642 5.97672L62.9558 5.9885L71.1027 11.7874ZM80.5728 3.55153L85.0601 12.4882L85.0676 12.4844L85.0752 12.4806L80.5728 3.55153ZM104.141 3.74141L98.8933 12.2537L98.9025 12.2594L98.9117 12.2651L104.141 3.74141ZM111.262 12.4994L120.596 8.91224V8.91224L111.262 12.4994ZM100.367 25.0787L110.226 26.7538L110.234 26.7092L110.241 26.6646L100.367 25.0787ZM100.367 17.365L90.6161 19.5812L90.624 19.6163L90.6322 19.6513L100.367 17.365ZM97.5667 12.6419L91.4522 20.5547L91.4805 20.5766L91.509 20.5982L97.5667 12.6419ZM85.4384 12.8555L90.6335 21.4001L90.6432 21.3942L90.6529 21.3883L85.4384 12.8555ZM80.4778 18.1245L89.1307 23.1372L89.1382 23.1244L89.1456 23.1115L80.4778 18.1245ZM77.7009 26.4553L87.5523 28.173L87.5641 28.1052L87.575 28.0371L77.7009 26.4553ZM77.6534 34.1691L67.9433 36.5593L67.9519 36.5944L67.9608 36.6295L77.6534 34.1691ZM80.5728 38.821L74.6591 46.8851L74.6884 46.9066L74.7179 46.9278L80.5728 38.821ZM92.6299 38.5837L87.4546 30.0271L87.4546 30.0271L92.6299 38.5837ZM97.543 33.3858L88.9052 28.3471L88.8921 28.3696L88.8791 28.3921L97.543 33.3858ZM102.256 24.7872C101.575 28.8104 100.322 31.7343 98.7763 33.8837L115.012 45.5622C118.656 40.4963 120.884 34.5751 121.976 28.1235L102.256 24.7872ZM98.7716 33.8903C97.0725 36.2565 95.1525 37.8669 92.9996 38.9434L101.944 56.8319C107.196 54.2057 111.558 50.3731 115.017 45.5556L98.7716 33.8903ZM92.9843 38.951C90.7297 40.0832 88.3081 40.6646 85.5808 40.6646V60.6646C91.3346 60.6646 96.8403 59.3947 101.959 56.8242L92.9843 38.951ZM85.5808 40.6646C82.6248 40.6646 80.6123 40.0219 79.1503 39.132L68.7514 56.216C73.8402 59.3135 79.5809 60.6646 85.5808 60.6646V40.6646ZM79.1503 39.132C77.8789 38.3581 76.8709 37.2468 76.1232 35.3297L57.4903 42.5972C59.7173 48.3068 63.4721 53.0025 68.7514 56.216L79.1503 39.132ZM76.1362 35.3633C75.4943 33.6999 75.1093 30.9893 75.8178 26.7134L56.0868 23.4441C54.9915 30.0544 55.1761 36.6003 57.4773 42.5636L76.1362 35.3633ZM75.8218 26.6889C76.4771 22.6723 77.7128 19.7454 79.2496 17.5863L62.9558 5.9885C59.3343 11.0764 57.1364 17.0103 56.0828 23.4686L75.8218 26.6889ZM79.2328 17.6099C80.9529 15.2081 82.8927 13.5765 85.0601 12.4882L76.0854 -5.38512C70.816 -2.73921 66.4425 1.11977 62.9726 5.96496L79.2328 17.6099ZM85.0752 12.4806C87.3821 11.3174 89.8392 10.7271 92.5825 10.7271V-9.27288C86.7813 -9.27288 81.2319 -7.98018 76.0704 -5.37756L85.0752 12.4806ZM92.5825 10.7271C95.4792 10.7271 97.4514 11.3648 98.8933 12.2537L109.389 -4.77092C104.312 -7.90103 98.5783 -9.27288 92.5825 -9.27288V10.7271ZM98.9117 12.2651C100.183 13.0448 101.187 14.1616 101.927 16.0867L120.596 8.91224C118.393 3.17899 114.65 -1.54297 109.371 -4.78224L98.9117 12.2651ZM101.927 16.0867C102.575 17.7715 102.96 20.5134 102.249 24.8299L121.983 28.0808C123.076 21.4478 122.892 14.8858 120.596 8.91224L101.927 16.0867ZM110.241 26.6646C110.854 22.8457 110.992 18.8663 110.103 15.0787L90.6322 19.6513C90.7238 20.041 90.8616 21.2041 90.4939 23.4929L110.241 26.6646ZM110.119 15.1488C109.245 11.3035 107.275 7.46468 103.624 4.68546L91.509 20.5982C91.1347 20.3133 90.8686 19.9861 90.7097 19.7182C90.5639 19.4722 90.5712 19.3838 90.6161 19.5812L110.119 15.1488ZM103.681 4.72901C100.115 1.9734 95.9745 1.02791 92.1315 1.02791V21.0279C92.452 21.0279 92.484 21.0673 92.317 21.0177C92.1278 20.9615 91.8029 20.8257 91.4522 20.5547L103.681 4.72901ZM92.1315 1.02791C87.9315 1.02791 83.8777 2.08977 80.2239 4.32265L90.6529 21.3883C90.9865 21.1844 91.3947 21.0279 92.1315 21.0279V1.02791ZM80.2432 4.31084C76.6218 6.51264 73.8505 9.59115 71.8101 13.1376L89.1456 23.1115C89.7635 22.0376 90.2991 21.6034 90.6335 21.4001L80.2432 4.31084ZM71.8249 13.1118C69.7523 16.6895 68.4969 20.6906 67.8268 24.8736L87.575 28.0371C87.9492 25.7011 88.5451 24.1482 89.1307 23.1372L71.8249 13.1118ZM67.8495 24.7377C67.1776 28.5913 66.9868 32.6733 67.9433 36.5593L87.3636 31.7789C87.3074 31.5508 87.1482 30.4904 87.5523 28.173L67.8495 24.7377ZM67.9608 36.6295C68.9342 40.4641 71.0048 44.2052 74.6591 46.8851L86.4864 30.757C86.8298 31.0088 87.0857 31.3052 87.2451 31.5593C87.3923 31.7938 87.3907 31.8848 87.346 31.7086L67.9608 36.6295ZM74.7179 46.9278C78.234 49.4672 82.2416 50.3638 86.008 50.3638V30.3638C85.681 30.3638 85.6137 30.325 85.7302 30.3581C85.7902 30.3751 85.89 30.4088 86.0171 30.4694C86.1453 30.5305 86.2855 30.6116 86.4277 30.7142L74.7179 46.9278ZM86.008 50.3638C90.1531 50.3638 94.1729 49.3373 97.8053 47.1403L87.4546 30.0271C87.1628 30.2035 86.768 30.3638 86.008 30.3638V50.3638ZM97.8053 47.1403C101.413 44.9584 104.175 41.9039 106.207 38.3796L88.8791 28.3921C88.2839 29.4248 87.7712 29.8356 87.4546 30.0271L97.8053 47.1403ZM106.181 38.4245C108.248 34.8814 109.52 30.9103 110.226 26.7538L90.5087 23.4037C90.1073 25.7663 89.4966 27.3332 88.9052 28.3471L106.181 38.4245ZM131.293 1.39169L141.198 0.0116863L139.997 -8.60831H131.293V1.39169ZM136.254 36.9935L126.35 38.3735L127.551 46.9935H136.254V36.9935ZM136.657 36.9935V46.9935H142.999L145.703 41.257L136.657 36.9935ZM153.438 1.39169V-8.60831H147.096L144.392 -2.8718L153.438 1.39169ZM166.587 1.39169L175.519 5.88823L182.817 -8.60831H166.587V1.39169ZM142.116 50V60H148.278L151.048 54.4965L142.116 50ZM126.475 50L116.619 51.6892L118.043 60H126.475V50ZM118.145 1.39169V-8.60831H106.285L108.288 3.08093L118.145 1.39169ZM121.389 2.77169L126.35 38.3735L146.158 35.6135L141.198 0.0116863L121.389 2.77169ZM136.254 46.9935H136.657V26.9935H136.254V46.9935ZM145.703 41.257L162.483 5.65518L144.392 -2.8718L127.612 32.73L145.703 41.257ZM153.438 11.3917H166.587V-8.60831H153.438V11.3917ZM157.655 -3.10485L133.184 45.5035L151.048 54.4965L175.519 5.88823L157.655 -3.10485ZM142.116 40H126.475V60H142.116V40ZM136.332 48.3108L128.001 -0.297548L108.288 3.08093L116.619 51.6892L136.332 48.3108ZM118.145 11.3917H131.293V-8.60831H118.145V11.3917ZM183.569 1.39169L193.434 3.02943L195.366 -8.60831H183.569V1.39169ZM175.499 50V60H183.976L185.364 51.6377L175.499 50ZM163.75 50L153.885 48.3623L151.953 60H163.75V50ZM171.82 1.39169V-8.60831H163.343L161.955 -0.246052L171.82 1.39169ZM173.704 -0.246052L165.634 48.3623L185.364 51.6377L193.434 3.02943L173.704 -0.246052ZM175.499 40H163.75V60H175.499V40ZM173.615 51.6377L181.685 3.02943L161.955 -0.246052L153.885 48.3623L173.615 51.6377ZM171.82 11.3917H183.569V-8.60831H171.82V11.3917ZM182.875 50L173.01 48.3623L171.077 60H182.875V50ZM190.944 1.39169V-8.60831H182.468L181.079 -0.246052L190.944 1.39169ZM224.837 1.39169L234.697 3.05954L236.671 -8.60831H224.837V1.39169ZM223.223 10.933V20.933H231.674L233.083 12.6008L223.223 10.933ZM201.079 10.933V0.932969H192.568L191.207 9.33473L201.079 10.933ZM199.465 20.9015L189.594 19.3032L187.716 30.9015H199.465V20.9015ZM219.877 20.9015L229.737 22.5653L231.705 10.9015H219.877V20.9015ZM218.263 30.4665V40.4665H226.717L228.123 32.1303L218.263 30.4665ZM197.851 30.4665V20.4665H189.337L187.979 28.8719L197.851 30.4665ZM196.237 40.4587L186.365 38.8642L184.492 50.4587H196.237V40.4587ZM218.381 40.4587L228.241 42.1266L230.215 30.4587H218.381V40.4587ZM216.767 50V60H225.218L226.627 51.6678L216.767 50ZM192.74 51.6377L200.809 3.02943L181.079 -0.246052L173.01 48.3623L192.74 51.6377ZM190.944 11.3917H224.837V-8.60831H190.944V11.3917ZM214.977 -0.276162L213.363 9.26512L233.083 12.6008L234.697 3.05954L214.977 -0.276162ZM223.223 0.932969H201.079V20.933H223.223V0.932969ZM191.207 9.33473L189.594 19.3032L209.336 22.4997L210.95 12.5312L191.207 9.33473ZM199.465 30.9015H219.877V10.9015H199.465V30.9015ZM210.016 19.2376L208.402 28.8027L228.123 32.1303L229.737 22.5653L210.016 19.2376ZM218.263 20.4665H197.851V40.4665H218.263V20.4665ZM187.979 28.8719L186.365 38.8642L206.109 42.0533L207.723 32.061L187.979 28.8719ZM196.237 50.4587H218.381V30.4587H196.237V50.4587ZM208.521 38.7909L206.907 48.3322L226.627 51.6678L228.241 42.1266L208.521 38.7909ZM216.767 40H182.875V60H216.767V40ZM224.125 50L214.26 48.3623L212.328 60H224.125V50ZM232.195 1.39169V-8.60831H223.718L222.33 -0.246052L232.195 1.39169ZM265.376 1.39169L275.236 3.05954L277.209 -8.60831H265.376V1.39169ZM263.762 10.933V20.933H272.212L273.622 12.6008L263.762 10.933ZM242.33 10.933V0.932969H233.818L232.458 9.33473L242.33 10.933ZM240.716 20.9015L230.844 19.3032L228.966 30.9015H240.716V20.9015ZM260.035 20.9015L269.896 22.5653L271.864 10.9015H260.035V20.9015ZM258.422 30.4665V40.4665H266.876L268.282 32.1303L258.422 30.4665ZM239.102 30.4665V20.4665H230.618L229.235 28.8361L239.102 30.4665ZM235.874 50V60H244.357L245.74 51.6304L235.874 50ZM233.99 51.6377L242.06 3.02943L222.33 -0.246052L214.26 48.3623L233.99 51.6377ZM232.195 11.3917H265.376V-8.60831H232.195V11.3917ZM255.516 -0.276158L253.902 9.26512L273.622 12.6008L275.236 3.05954L255.516 -0.276158ZM263.762 0.932969H242.33V20.933H263.762V0.932969ZM232.458 9.33473L230.844 19.3032L250.587 22.4997L252.201 12.5312L232.458 9.33473ZM240.716 30.9015H260.035V10.9015H240.716V30.9015ZM250.175 19.2376L248.561 28.8027L268.282 32.1303L269.896 22.5653L250.175 19.2376ZM258.422 20.4665H239.102V40.4665H258.422V20.4665ZM229.235 28.8361L226.008 48.3696L245.74 51.6304L248.968 32.0969L229.235 28.8361ZM235.874 40H224.125V60H235.874V40ZM263.222 50L253.357 48.3623L251.425 60H263.222V50ZM271.292 1.39169V-8.60831H262.815L261.427 -0.246052L271.292 1.39169ZM283.04 1.39169L292.906 3.02207L294.828 -8.60831H283.04V1.39169ZM276.584 40.4587L266.718 38.8283L264.796 50.4587H276.584V40.4587ZM296.806 40.4587L306.666 42.1266L308.64 30.4587H296.806V40.4587ZM295.192 50V60H303.643L305.052 51.6678L295.192 50ZM273.087 51.6377L281.157 3.02943L261.427 -0.246052L253.357 48.3623L273.087 51.6377ZM271.292 11.3917H283.04V-8.60831H271.292V11.3917ZM273.174 -0.238691L266.718 38.8283L286.451 42.0891L292.906 3.02207L273.174 -0.238691ZM276.584 50.4587H296.806V30.4587H276.584V50.4587ZM286.946 38.7909L285.332 48.3321L305.052 51.6678L306.666 42.1266L286.946 38.7909ZM295.192 40H263.222V60H295.192V40ZM321.093 1.39169L330.958 3.02943L332.89 -8.60831H321.093V1.39169ZM313.023 50V60H321.5L322.888 51.6377L313.023 50ZM301.274 50L291.409 48.3623L289.477 60H301.274V50ZM309.344 1.39169V-8.60831H300.867L299.479 -0.246052L309.344 1.39169ZM311.228 -0.246052L303.158 48.3623L322.888 51.6377L330.958 3.02943L311.228 -0.246052ZM313.023 40H301.274V60H313.023V40ZM311.139 51.6377L319.209 3.02943L299.479 -0.246052L291.409 48.3623L311.139 51.6377ZM309.344 11.3917H321.093V-8.60831H309.344V11.3917ZM339.908 1.39169L349.157 -2.41078L346.609 -8.60831H339.908V1.39169ZM346.221 16.7479L336.973 20.5504L339.521 26.7479H346.221V16.7479ZM346.601 16.7479V26.7479H351.597L354.597 22.7539L346.601 16.7479ZM358.136 1.39169V-8.60831H353.141L350.141 -4.61424L358.136 1.39169ZM371.736 1.39169L379.669 7.48056L392.018 -8.60831H371.736V1.39169ZM353.081 25.6958L345.148 19.607L341.491 24.3713L343.979 29.8379L353.081 25.6958ZM364.141 50V60H379.679L373.243 45.858L364.141 50ZM350.968 50L341.755 53.8881L344.335 60H350.968V50ZM344.418 34.4776L353.631 30.5895L351.051 24.4776H344.418V34.4776ZM344.038 34.4776V24.4776H339.047L336.047 28.4659L344.038 34.4776ZM332.361 50V60H337.351L340.352 56.0117L332.361 50ZM318.666 50L310.812 43.8103L298.053 60H318.666V50ZM337.819 25.6958L345.674 31.8856L349.394 27.1653L346.971 21.6652L337.819 25.6958ZM327.115 1.39169V-8.60831H311.784L317.963 5.42237L327.115 1.39169ZM330.659 5.19415L336.973 20.5504L355.47 12.9455L349.157 -2.41078L330.659 5.19415ZM346.221 26.7479H346.601V6.74793H346.221V26.7479ZM354.597 22.7539L366.132 7.39762L350.141 -4.61424L338.606 10.742L354.597 22.7539ZM358.136 11.3917H371.736V-8.60831H358.136V11.3917ZM363.804 -4.69718L345.148 19.607L361.013 31.7847L379.669 7.48056L363.804 -4.69718ZM343.979 29.8379L355.039 54.142L373.243 45.858L362.183 21.5538L343.979 29.8379ZM364.141 40H350.968V60H364.141V40ZM360.182 46.1119L353.631 30.5895L335.204 38.3657L341.755 53.8881L360.182 46.1119ZM344.418 24.4776H344.038V44.4776H344.418V24.4776ZM336.047 28.4659L324.369 43.9883L340.352 56.0117L352.029 40.4893L336.047 28.4659ZM332.361 40H318.666V60H332.361V40ZM326.52 56.1897L345.674 31.8856L329.965 19.5061L310.812 43.8103L326.52 56.1897ZM346.971 21.6652L336.267 -2.63899L317.963 5.42237L328.668 29.7265L346.971 21.6652ZM327.115 11.3917H339.908V-8.60831H327.115V11.3917Z" fill="#26055B" mask="url(#path-1-outside-1_1_4)"/>
</svg>
